<svg width="474" height="116" viewBox="0 0 474 116" fill="none" xmlns="http://www.w3.org/2000/svg">
<path d="M-2 16.5976C31.2217 9.92472 64.4435 3.25183 97.6674 7.27869C130.889 11.3089 164.111 26.0356 197.333 22.8113C230.557 19.5871 263.778 -1.59128 297 1.06835C330.222 3.72458 363.443 30.2189 396.667 44.5543C429.889 58.8932 463.111 61.0767 496.333 56.9818C529.557 52.8835 562.778 42.5069 596 32.1303V156.381C562.778 156.381 529.557 156.381 496.333 156.381C463.111 156.381 429.889 156.381 396.667 156.381C363.443 156.381 330.222 156.381 297 156.381C263.778 156.381 230.557 156.381 197.333 156.381C164.111 156.381 130.889 156.381 97.6674 156.381C64.4435 156.381 31.2217 156.381 -2 156.381V16.5976Z" fill="#88D3A0" fill-opacity="0.19"/>
</svg>
