<svg width="1710" height="102" viewBox="0 0 1710 102" fill="none" xmlns="http://www.w3.org/2000/svg">
<path d="M-12 47.5961C83.9986 51.4977 179.997 55.4026 276.002 47.5961C372.001 39.793 467.999 20.2817 563.998 17.3729C660.003 14.4641 756.001 28.1544 852 29.4616C947.999 30.772 1044 19.7026 1140 11.3269C1236 2.95458 1332 -2.72075 1428 2.25965C1524 7.24336 1620 22.8861 1716 38.5289V102C1620 102 1524 102 1428 102C1332 102 1236 102 1140 102C1044 102 947.999 102 852 102C756.001 102 660.003 102 563.998 102C467.999 102 372.001 102 276.002 102C179.997 102 83.9986 102 -12 102V47.5961Z" fill="#88D3A0" fill-opacity="0.19"/>
</svg>
