<svg width="1710" height="266" viewBox="0 0 1710 266" fill="none" xmlns="http://www.w3.org/2000/svg">
<path d="M-12 39.3174C83.9986 37.9143 179.997 36.5112 276.002 27.2288C372.001 17.9464 467.999 0.787987 563.998 0.026863C660.003 -0.734261 756.001 14.9052 852 18.1615C947.999 21.4178 1044 12.2975 1140 12.1155C1236 11.9368 1332 20.6996 1428 30.2501C1524 39.8005 1620 50.1386 1716 60.4766V266C1620 266 1524 266 1428 266C1332 266 1236 266 1140 266C1044 266 947.999 266 852 266C756.001 266 660.003 266 563.998 266C467.999 266 372.001 266 276.002 266C179.997 266 83.9986 266 -12 266V39.3174Z" fill="#88D3A0" fill-opacity="0.19"/>
</svg>
