<svg width="1710" height="179" viewBox="0 0 1710 179" fill="none" xmlns="http://www.w3.org/2000/svg">
<path d="M-12 36.9478C83.9986 19.5611 179.997 2.17766 276.002 0.678577C372.001 -0.823815 467.999 13.5581 563.998 27.8805C660.003 42.1995 756.001 56.459 852 52.0577C947.999 47.6598 1044 24.601 1140 24.8558C1236 25.1107 1332 48.6757 1428 52.0577C1524 55.4398 1620 38.6388 1716 21.8345V179C1620 179 1524 179 1428 179C1332 179 1236 179 1140 179C1044 179 947.999 179 852 179C756.001 179 660.003 179 563.998 179C467.999 179 372.001 179 276.002 179C179.997 179 83.9986 179 -12 179V36.9478Z" fill="#88D3A0" fill-opacity="0.19"/>
</svg>
