<svg width="1710" height="152" viewBox="0 0 1710 152" fill="none" xmlns="http://www.w3.org/2000/svg">
<path d="M-12 15.9905C83.9986 9.49774 179.997 3.00502 276.002 6.92315C372.001 10.8446 467.999 25.1736 563.998 22.0364C660.003 18.8993 756.001 -1.70733 852 0.88049C947.999 3.465 1044 29.2439 1140 43.1924C1236 57.1441 1332 59.2686 1428 55.2843C1524 51.2967 1620 41.2002 1716 31.1037V152C1620 152 1524 152 1428 152C1332 152 1236 152 1140 152C1044 152 947.999 152 852 152C756.001 152 660.003 152 563.998 152C467.999 152 372.001 152 276.002 152C179.997 152 83.9986 152 -12 152V15.9905Z" fill="#88D3A0" fill-opacity="0.19"/>
</svg>
