<svg width="1710" height="94" viewBox="0 0 1710 94" fill="none" xmlns="http://www.w3.org/2000/svg">
<path d="M-12 0.305573C83.9986 2.86692 179.997 5.43156 276.002 12.3942C372.001 19.3601 467.999 30.7274 563.998 36.5748C660.003 42.4222 756.001 42.7531 852 45.6421C947.999 48.531 1044 53.9747 1140 57.7307C1236 61.4867 1332 63.5549 1428 54.7094C1524 45.8638 1620 26.1077 1716 6.35154V93.9999C1620 93.9999 1524 93.9999 1428 93.9999C1332 93.9999 1236 93.9999 1140 93.9999C1044 93.9999 947.999 93.9999 852 93.9999C756.001 93.9999 660.003 93.9999 563.998 93.9999C467.999 93.9999 372.001 93.9999 276.002 93.9999C179.997 93.9999 83.9986 93.9999 -12 93.9999V0.305573Z" fill="#88D3A0" fill-opacity="0.19"/>
</svg>
