<svg width="1710" height="204" viewBox="0 0 1710 204" fill="none" xmlns="http://www.w3.org/2000/svg">
<path d="M-12 49.8558C83.9986 40.5271 179.997 31.2017 276.002 28.6999C372.001 26.1981 467.999 30.5266 563.998 22.654C660.003 14.7846 756.001 -5.28591 852 1.49802C947.999 8.28194 1044 41.917 1140 46.8345C1236 51.752 1332 27.9454 1428 16.6113C1524 5.27385 1620 6.40892 1716 7.54398V204C1620 204 1524 204 1428 204C1332 204 1236 204 1140 204C1044 204 947.999 204 852 204C756.001 204 660.003 204 563.998 204C467.999 204 372.001 204 276.002 204C179.997 204 83.9986 204 -12 204V49.8558Z" fill="#88D3A0" fill-opacity="0.19"/>
</svg>
