<svg width="1710" height="185" viewBox="0 0 1710 185" fill="none" xmlns="http://www.w3.org/2000/svg">
<path d="M-12 21.7884C83.9986 40.2275 179.997 58.6665 276.002 55.0363C372.001 51.4061 467.999 25.7099 563.998 21.7884C660.003 17.8703 756.001 35.7269 852 33.8804C947.999 32.0338 1044 10.4808 1140 12.7211C1236 14.9648 1332 40.9952 1428 42.9477C1524 44.8968 1620 22.7647 1716 0.632507V185C1620 185 1524 185 1428 185C1332 185 1236 185 1140 185C1044 185 947.999 185 852 185C756.001 185 660.003 185 563.998 185C467.999 185 372.001 185 276.002 185C179.997 185 83.9986 185 -12 185V21.7884Z" fill="#88D3A0" fill-opacity="0.19"/>
</svg>
