<svg width="1710" height="222" viewBox="0 0 1710 222" fill="none" xmlns="http://www.w3.org/2000/svg">
<path d="M-12 46.6999C83.9986 34.7668 179.997 22.8337 276.002 13.452C372.001 4.07361 467.999 -2.75334 563.998 1.36335C660.003 5.48003 756.001 20.5404 852 34.6112C947.999 48.6821 1044 61.7635 1140 58.7885C1236 55.8135 1332 36.7821 1428 28.5653C1524 20.3484 1620 22.9462 1716 25.5439V222C1620 222 1524 222 1428 222C1332 222 1236 222 1140 222C1044 222 947.999 222 852 222C756.001 222 660.003 222 563.998 222C467.999 222 372.001 222 276.002 222C179.997 222 83.9986 222 -12 222V46.6999Z" fill="#88D3A0" fill-opacity="0.19"/>
</svg>
