<svg width="1710" height="143" viewBox="0 0 1710 143" fill="none" xmlns="http://www.w3.org/2000/svg">
<path d="M-12 0.947815C83.9986 6.51064 179.997 12.0768 276.002 25.1251C372.001 38.1767 467.999 58.7138 563.998 52.327C660.003 45.9435 756.001 12.6327 852 10.0151C947.999 7.3942 1044 35.4631 1140 49.3056C1236 63.1482 1332 62.761 1428 61.3943C1524 60.0309 1620 57.6912 1716 55.3516V143C1620 143 1524 143 1428 143C1332 143 1236 143 1140 143C1044 143 947.999 143 852 143C756.001 143 660.003 143 563.998 143C467.999 143 372.001 143 276.002 143C179.997 143 83.9986 143 -12 143V0.947815Z" fill="#88D3A0" fill-opacity="0.19"/>
</svg>
