<svg width="1710" height="252" viewBox="0 0 1710 252" fill="none" xmlns="http://www.w3.org/2000/svg">
<path d="M-12 4.1615C83.9986 5.64735 179.997 7.13319 276.002 19.2748C372.001 31.4164 467.999 54.2137 563.998 64.6113C660.003 75.0089 756.001 73.0068 852 67.6326C947.999 62.2584 1044 53.5154 1140 37.4094C1236 21.3 1332 -2.16906 1428 1.14017C1524 4.4461 1620 34.527 1716 64.6113V252C1620 252 1524 252 1428 252C1332 252 1236 252 1140 252C1044 252 947.999 252 852 252C756.001 252 660.003 252 563.998 252C467.999 252 372.001 252 276.002 252C179.997 252 83.9986 252 -12 252V4.1615Z" fill="#88D3A0" fill-opacity="0.19"/>
</svg>
