<svg width="33" height="33" viewBox="0 0 33 33" fill="none" xmlns="http://www.w3.org/2000/svg">
<g clip-path="url(#clip0_634_551)">
<path d="M32.0845 26.013L22.2612 16.1897L32.0845 6.3664C32.2727 6.17587 32.3783 5.91883 32.3783 5.65101C32.3783 5.38318 32.2727 5.12614 32.0845 4.93561L27.4441 0.295151C27.3502 0.200981 27.2388 0.12626 27.116 0.075276C26.9932 0.0242917 26.8616 -0.00195313 26.7287 -0.00195312C26.5957 -0.00195312 26.4641 0.0242917 26.3413 0.075276C26.2186 0.12626 26.1071 0.200981 26.0133 0.295151L16.19 10.1184L6.36671 0.295151C6.17695 0.105454 5.91962 -0.00111242 5.65131 -0.00111242C5.383 -0.00111242 5.12567 0.105454 4.93591 0.295151L0.295456 4.93561C0.201286 5.02943 0.126565 5.14092 0.0755811 5.26369C0.0245969 5.38645 -0.00164795 5.51807 -0.00164795 5.65101C-0.00164795 5.78394 0.0245969 5.91556 0.0755811 6.03832C0.126565 6.16109 0.201286 6.27258 0.295456 6.3664L10.1187 16.1897L0.295456 26.013C0.105759 26.2027 -0.000807245 26.4601 -0.000807245 26.7284C-0.000807245 26.9967 0.105759 27.254 0.295456 27.4438L4.93591 32.0842C5.02974 32.1784 5.14123 32.2531 5.26399 32.3041C5.38676 32.3551 5.51838 32.3813 5.65131 32.3813C5.78424 32.3813 5.91586 32.3551 6.03863 32.3041C6.16139 32.2531 6.27288 32.1784 6.36671 32.0842L16.19 22.2609L26.0133 32.0842C26.203 32.2739 26.4604 32.3805 26.7287 32.3805C26.997 32.3805 27.2543 32.2739 27.4441 32.0842L32.0845 27.4438C32.1787 27.3499 32.2534 27.2384 32.3044 27.1157C32.3554 26.9929 32.3816 26.8613 32.3816 26.7284C32.3816 26.5954 32.3554 26.4638 32.3044 26.341C32.2534 26.2183 32.1787 26.1068 32.0845 26.013Z" fill="#E73636"/>
</g>
<defs>
<clipPath id="clip0_634_551">
<rect width="32.38" height="32.38" fill="white"/>
</clipPath>
</defs>
</svg>
