<svg width="474" height="170" viewBox="0 0 474 170" fill="none" xmlns="http://www.w3.org/2000/svg">
<path d="M-2 51.9598C31.2217 42.3722 64.4435 32.788 97.6674 30.2168C130.889 27.6456 164.111 32.0942 197.333 24.003C230.557 15.9153 263.778 -4.71212 297 2.26005C330.222 9.23223 363.443 43.8006 396.667 48.8546C429.889 53.9086 463.111 29.4413 496.333 17.7927C529.557 6.14067 562.778 7.30723 596 8.47379V210.381C562.778 210.381 529.557 210.381 496.333 210.381C463.111 210.381 429.889 210.381 396.667 210.381C363.443 210.381 330.222 210.381 297 210.381C263.778 210.381 230.557 210.381 197.333 210.381C164.111 210.381 130.889 210.381 97.6674 210.381C64.4435 210.381 31.2217 210.381 -2 210.381V51.9598Z" fill="#88D3A0" fill-opacity="0.19"/>
</svg>
