<svg width="474" height="150" viewBox="0 0 474 150" fill="none" xmlns="http://www.w3.org/2000/svg">
<path d="M-2 22.6407C31.2217 41.5914 64.4435 60.5421 97.6674 56.8112C130.889 53.0802 164.111 26.671 197.333 22.6407C230.557 18.6138 263.778 36.966 297 35.0682C330.222 33.1704 363.443 11.0193 396.667 13.3218C429.889 15.6277 463.111 42.3805 496.333 44.3871C529.557 46.3903 562.778 23.644 596 0.897705V190.381C562.778 190.381 529.557 190.381 496.333 190.381C463.111 190.381 429.889 190.381 396.667 190.381C363.443 190.381 330.222 190.381 297 190.381C263.778 190.381 230.557 190.381 197.333 190.381C164.111 190.381 130.889 190.381 97.6674 190.381C64.4435 190.381 31.2217 190.381 -2 190.381V22.6407Z" fill="#88D3A0" fill-opacity="0.19"/>
</svg>
