<svg width="474" height="188" viewBox="0 0 474 188" fill="none" xmlns="http://www.w3.org/2000/svg">
<path d="M-2 48.2167C31.2217 35.9525 64.4435 23.6883 97.6674 14.0463C130.889 4.40764 164.111 -2.60875 197.333 1.62217C230.557 5.8531 263.778 21.3313 297 35.7927C330.222 50.254 363.443 63.6984 396.667 60.6408C429.889 57.5833 463.111 38.0238 496.333 29.5789C529.557 21.1341 562.778 23.8039 596 26.4737V228.381C562.778 228.381 529.557 228.381 496.333 228.381C463.111 228.381 429.889 228.381 396.667 228.381C363.443 228.381 330.222 228.381 297 228.381C263.778 228.381 230.557 228.381 197.333 228.381C164.111 228.381 130.889 228.381 97.6674 228.381C64.4435 228.381 31.2217 228.381 -2 228.381V48.2167Z" fill="#88D3A0" fill-opacity="0.19"/>
</svg>
