<svg width="474" height="65" viewBox="0 0 474 65" fill="none" xmlns="http://www.w3.org/2000/svg">
<path d="M-2 49.4678C31.2217 53.4777 64.4435 57.4909 97.6674 49.4678C130.889 41.4481 164.111 21.3954 197.333 18.4059C230.557 15.4164 263.778 29.4866 297 30.83C330.222 32.1768 363.443 20.8002 396.667 12.1922C429.889 3.58747 463.111 -2.24534 496.333 2.87326C529.557 7.99525 562.778 24.0721 596 40.1489V105.381C562.778 105.381 529.557 105.381 496.333 105.381C463.111 105.381 429.889 105.381 396.667 105.381C363.443 105.381 330.222 105.381 297 105.381C263.778 105.381 230.557 105.381 197.333 105.381C164.111 105.381 130.889 105.381 97.6674 105.381C64.4435 105.381 31.2217 105.381 -2 105.381V49.4678Z" fill="#88D3A0" fill-opacity="0.19"/>
</svg>
