<svg width="474" height="143" viewBox="0 0 474 143" fill="none" xmlns="http://www.w3.org/2000/svg">
<path d="M-2 37.3873C31.2217 19.5181 64.4435 1.65229 97.6674 0.111606C130.889 -1.43248 164.111 13.3485 197.333 28.0683C230.557 42.7847 263.778 57.4399 297 52.9165C330.222 48.3965 363.443 24.6979 396.667 24.9598C429.889 25.2216 463.111 49.4406 496.333 52.9165C529.557 56.3924 562.778 39.1252 596 21.8546V183.381C562.778 183.381 529.557 183.381 496.333 183.381C463.111 183.381 429.889 183.381 396.667 183.381C363.443 183.381 330.222 183.381 297 183.381C263.778 183.381 230.557 183.381 197.333 183.381C164.111 183.381 130.889 183.381 97.6674 183.381C64.4435 183.381 31.2217 183.381 -2 183.381V37.3873Z" fill="#88D3A0" fill-opacity="0.19"/>
</svg>
