<svg width="474" height="252" viewBox="0 0 474 252" fill="none" xmlns="http://www.w3.org/2000/svg">
<path d="M-2 40.4084C31.2217 38.9664 64.4435 37.5243 97.6674 27.9843C130.889 18.4444 164.111 0.809853 197.333 0.0276084C230.557 -0.754636 263.778 15.3188 297 18.6654C330.222 22.0121 363.443 12.6387 396.667 12.4517C429.889 12.268 463.111 21.274 496.333 31.0895C529.557 40.905 562.778 51.5299 596 62.1548V273.381C562.778 273.381 529.557 273.381 496.333 273.381C463.111 273.381 429.889 273.381 396.667 273.381C363.443 273.381 330.222 273.381 297 273.381C263.778 273.381 230.557 273.381 197.333 273.381C164.111 273.381 130.889 273.381 97.6674 273.381C64.4435 273.381 31.2217 273.381 -2 273.381V40.4084Z" fill="#88D3A0" fill-opacity="0.19"/>
</svg>
