<svg width="474" height="237" viewBox="0 0 474 237" fill="none" xmlns="http://www.w3.org/2000/svg">
<path d="M-2 3.66547C31.2217 5.19255 64.4435 6.71962 97.6674 19.1981C130.889 31.6766 164.111 55.1065 197.333 65.7927C230.557 76.4788 263.778 74.4212 297 68.8978C330.222 63.3745 363.443 54.3889 396.667 37.8359C429.889 21.2796 463.111 -2.84076 496.333 0.5603C529.557 3.95796 562.778 34.8736 596 65.7927V258.381C562.778 258.381 529.557 258.381 496.333 258.381C463.111 258.381 429.889 258.381 396.667 258.381C363.443 258.381 330.222 258.381 297 258.381C263.778 258.381 230.557 258.381 197.333 258.381C164.111 258.381 130.889 258.381 97.6674 258.381C64.4435 258.381 31.2217 258.381 -2 258.381V3.66547Z" fill="#88D3A0" fill-opacity="0.19"/>
</svg>
