<svg width="474" height="56" viewBox="0 0 474 56" fill="none" xmlns="http://www.w3.org/2000/svg">
<path d="M-2 0.0868988C31.2217 2.71932 64.4435 5.35513 97.6674 12.511C130.889 19.6702 164.111 31.3529 197.333 37.3625C230.557 43.3722 263.778 43.7123 297 46.6814C330.222 49.6506 363.443 55.2453 396.667 59.1055C429.889 62.9657 463.111 65.0914 496.333 56.0004C529.557 46.9093 562.778 26.605 596 6.30064V96.3812C562.778 96.3812 529.557 96.3812 496.333 96.3812C463.111 96.3812 429.889 96.3812 396.667 96.3812C363.443 96.3812 330.222 96.3812 297 96.3812C263.778 96.3812 230.557 96.3812 197.333 96.3812C164.111 96.3812 130.889 96.3812 97.6674 96.3812C64.4435 96.3812 31.2217 96.3812 -2 96.3812V0.0868988Z" fill="#88D3A0" fill-opacity="0.19"/>
</svg>
